# xmcd
# 
# Track frame offsets:
#     150
#     6586
#     27417
#     49857
#     68981
#     88666
#     107355
#     126173
#     146279
#     164177
#     177453
#     196062
#     210766
#     233004
# 
# Disc length: 3391
# 
# Revision: 0
# Processed by: cddbd v1.5.2PL0 Copyright (c) Steve Scherf et al.
# Submitted via: BonkEnc v1.0.8
# 
DISCID=be0d3d0e
DTITLE=Jay Z - The Black Album
DYEAR=2003
DGENRE=Rap
TTITLE0=Interlude
TTITLE1=December 4
TTITLE2=What More Can I Say
TTITLE3=Encore
TTITLE4=Change Clothes
TTITLE5=Dirt Off Your Shoulder
TTITLE6=Threat
TTITLE7=Moment of Clarity
TTITLE8=99 Problems
TTITLE9=Interlude
TTITLE10=Justify My Thug
TTITLE11=Lucifer
TTITLE12=Allure
TTITLE13=My First Song
EXTD=
EXTT0=
EXTT1=
EXTT2=
EXTT3=
EXTT4=
EXTT5=
EXTT6=
EXTT7=
EXTT8=
EXTT9=
EXTT10=
EXTT11=
EXTT12=
EXTT13=
PLAYORDER=
